# xmcd
#
# Track frame offsets:
#	150
#	10995
#	27035
#	36750
#	51359
#	58810
#	70373
#	91166
#	102527
#	116877
#	127689
#	143128
#	159330
#	172141
#	183288
#	197889
#
# Disc length: 2740 seconds
#
# Revision: 1
# Processed by: cddbd v1.5.2PL0 Copyright (c) Steve Scherf et al.
# Submitted via: audiograbber 1.83.01
#
DISCID=e00ab210
DTITLE=Various Artist - Coup de Chapeau Paul Brunelle
DYEAR=1900
DGENRE=Country
TTITLE0=Marie King - Ma petite Maison
TTITLE1=Andre Hebert - Maman Cherie
TTITLE2=Ernest Dube - Les Troubadours du far West
TTITLE3=Reginald  Brault - Par une nuit d'etoiles
TTITLE4=Tex Roach - A minuit sous la pluit
TTITLE5=Roger Roy - La Chanson d'un orphelin ( Wanitou)
TTITLE6=Yves Ranger - La complainte des Mineurs
TTITLE7=Andre Belair - Mon enfant je te pardonne (a l'orgue)
TTITLE8=Len Robertson - Ce jour la
TTITLE9=Normand Grenier - Reine de mon coeur
TTITLE10=Claude Richer - On pardonne toujours quand on aime
TTITLE11=RegisLevasseur - Le destin cruel
TTITLE12=Camille Breton - Le train qui siffle
TTITLE13=Manon Paquin - L'automne dans ma vallee
TTITLE14=Johnny Lee - Les filles des prairies
TTITLE15=Jeannette - Je chante en me reveillant
EXTD=
EXTT0=
EXTT1=
EXTT2=
EXTT3=
EXTT4=
EXTT5=
EXTT6=
EXTT7=
EXTT8=
EXTT9=
EXTT10=
EXTT11=
EXTT12=
EXTT13=
EXTT14=
EXTT15=
PLAYORDER=
